<?xml version="1.0" encoding="UTF-8" standalone="no"?>
<!-- Created with Inkscape (http://www.inkscape.org/) -->

<svg
   xmlns:dc="http://purl.org/dc/elements/1.1/"
   xmlns:cc="http://creativecommons.org/ns#"
   xmlns:rdf="http://www.w3.org/1999/02/22-rdf-syntax-ns#"
   xmlns:svg="http://www.w3.org/2000/svg"
   xmlns="http://www.w3.org/2000/svg"
   xmlns:xlink="http://www.w3.org/1999/xlink"
   xmlns:sodipodi="http://sodipodi.sourceforge.net/DTD/sodipodi-0.dtd"
   xmlns:inkscape="http://www.inkscape.org/namespaces/inkscape"
   width="400"
   height="300"
   id="svg2"
   version="1.1"
   inkscape:version="0.47pre4 r22446"
   sodipodi:docname="Coupling sketches cropped 1.svg">
  <defs
     id="defs4">
    <linearGradient
       id="linearGradient3827">
      <stop
         style="stop-color:#ffa0a0;stop-opacity:1;"
         offset="0"
         id="stop3829" />
      <stop
         style="stop-color:#a0ffa0;stop-opacity:1;"
         offset="1"
         id="stop3831" />
    </linearGradient>
    <linearGradient
       id="linearGradient3672">
      <stop
         id="stop3674"
         offset="0"
         style="stop-color:#808080;stop-opacity:1;" />
      <stop
         id="stop3676"
         offset="1"
         style="stop-color:#000000;stop-opacity:1;" />
    </linearGradient>
    <linearGradient
       id="linearGradient3660">
      <stop
         style="stop-color:#000000;stop-opacity:1;"
         offset="0"
         id="stop3662" />
      <stop
         style="stop-color:#ffffff;stop-opacity:1;"
         offset="1"
         id="stop3664" />
    </linearGradient>
    <linearGradient
       id="linearGradient3592">
      <stop
         style="stop-color:#ffffff;stop-opacity:1;"
         offset="0"
         id="stop3594" />
      <stop
         style="stop-color:#0000ff;stop-opacity:1;"
         offset="1"
         id="stop3596" />
    </linearGradient>
    <inkscape:perspective
       sodipodi:type="inkscape:persp3d"
       inkscape:vp_x="0 : 526.18109 : 1"
       inkscape:vp_y="0 : 1000 : 0"
       inkscape:vp_z="744.09448 : 526.18109 : 1"
       inkscape:persp3d-origin="372.04724 : 350.78739 : 1"
       id="perspective10" />
    <radialGradient
       inkscape:collect="always"
       xlink:href="#linearGradient3592"
       id="radialGradient3598"
       cx="37.880722"
       cy="39.538532"
       fx="37.880722"
       fy="39.538532"
       r="15.652288"
       gradientTransform="matrix(1.3045096,1.3724615,-1.3226853,1.2571988,40.76199,-62.316978)"
       gradientUnits="userSpaceOnUse" />
    <radialGradient
       inkscape:collect="always"
       xlink:href="#linearGradient3592"
       id="radialGradient3602"
       gradientUnits="userSpaceOnUse"
       gradientTransform="matrix(1.3045096,1.3724615,-1.3226853,1.2571988,40.76199,-62.316978)"
       cx="37.880722"
       cy="39.538532"
       fx="37.880722"
       fy="39.538532"
       r="15.652288" />
    <radialGradient
       inkscape:collect="always"
       xlink:href="#linearGradient3592"
       id="radialGradient3606"
       gradientUnits="userSpaceOnUse"
       gradientTransform="matrix(1.3045096,1.3724615,-1.3226853,1.2571988,40.76199,-62.316978)"
       cx="37.880722"
       cy="39.538532"
       fx="37.880722"
       fy="39.538532"
       r="15.652288" />
    <radialGradient
       inkscape:collect="always"
       xlink:href="#linearGradient3592"
       id="radialGradient3610"
       gradientUnits="userSpaceOnUse"
       gradientTransform="matrix(1.3045096,1.3724615,-1.3226853,1.2571988,40.76199,-62.316978)"
       cx="37.880722"
       cy="39.538532"
       fx="37.880722"
       fy="39.538532"
       r="15.652288" />
    <radialGradient
       inkscape:collect="always"
       xlink:href="#linearGradient3592"
       id="radialGradient3616"
       gradientUnits="userSpaceOnUse"
       gradientTransform="matrix(1.3045096,1.3724615,-1.3226853,1.2571988,40.76199,-62.316978)"
       cx="37.880722"
       cy="39.538532"
       fx="37.880722"
       fy="39.538532"
       r="15.652288" />
    <radialGradient
       inkscape:collect="always"
       xlink:href="#linearGradient3592"
       id="radialGradient3618"
       gradientUnits="userSpaceOnUse"
       gradientTransform="matrix(1.3045096,1.3724615,-1.3226853,1.2571988,40.76199,-62.316978)"
       cx="37.880722"
       cy="39.538532"
       fx="37.880722"
       fy="39.538532"
       r="15.652288" />
    <radialGradient
       inkscape:collect="always"
       xlink:href="#linearGradient3592"
       id="radialGradient3632"
       gradientUnits="userSpaceOnUse"
       gradientTransform="matrix(1.3045096,1.3724615,-1.3226853,1.2571988,40.76199,-62.316978)"
       cx="37.880722"
       cy="39.538532"
       fx="37.880722"
       fy="39.538532"
       r="15.652288" />
    <radialGradient
       inkscape:collect="always"
       xlink:href="#linearGradient3592"
       id="radialGradient3634"
       gradientUnits="userSpaceOnUse"
       gradientTransform="matrix(1.3045096,1.3724615,-1.3226853,1.2571988,40.76199,-62.316978)"
       cx="37.880722"
       cy="39.538532"
       fx="37.880722"
       fy="39.538532"
       r="15.652288" />
    <radialGradient
       inkscape:collect="always"
       xlink:href="#linearGradient3592"
       id="radialGradient3636"
       gradientUnits="userSpaceOnUse"
       gradientTransform="matrix(1.3045096,1.3724615,-1.3226853,1.2571988,40.76199,-62.316978)"
       cx="37.880722"
       cy="39.538532"
       fx="37.880722"
       fy="39.538532"
       r="15.652288" />
    <radialGradient
       inkscape:collect="always"
       xlink:href="#linearGradient3592"
       id="radialGradient3638"
       gradientUnits="userSpaceOnUse"
       gradientTransform="matrix(1.3045096,1.3724615,-1.3226853,1.2571988,40.76199,-62.316978)"
       cx="37.880722"
       cy="39.538532"
       fx="37.880722"
       fy="39.538532"
       r="15.652288" />
    <radialGradient
       inkscape:collect="always"
       xlink:href="#linearGradient3592"
       id="radialGradient3640"
       gradientUnits="userSpaceOnUse"
       gradientTransform="matrix(1.3045096,1.3724615,-1.3226853,1.2571988,40.76199,-62.316978)"
       cx="37.880722"
       cy="39.538532"
       fx="37.880722"
       fy="39.538532"
       r="15.652288" />
    <radialGradient
       inkscape:collect="always"
       xlink:href="#linearGradient3592"
       id="radialGradient3642"
       gradientUnits="userSpaceOnUse"
       gradientTransform="matrix(1.3045096,1.3724615,-1.3226853,1.2571988,40.76199,-62.316978)"
       cx="37.880722"
       cy="39.538532"
       fx="37.880722"
       fy="39.538532"
       r="15.652288" />
    <linearGradient
       inkscape:collect="always"
       xlink:href="#linearGradient3660"
       id="linearGradient3666"
       x1="202.85715"
       y1="188.39285"
       x2="202.85715"
       y2="174.85715"
       gradientUnits="userSpaceOnUse"
       gradientTransform="translate(0,730.36218)" />
    <radialGradient
       inkscape:collect="always"
       xlink:href="#linearGradient3672"
       id="radialGradient3670"
       gradientUnits="userSpaceOnUse"
       gradientTransform="matrix(1.3045096,1.3724615,-1.3226853,1.2571988,40.76199,-62.316978)"
       cx="37.880722"
       cy="39.538532"
       fx="37.880722"
       fy="39.538532"
       r="15.652288" />
    <radialGradient
       inkscape:collect="always"
       xlink:href="#linearGradient3672"
       id="radialGradient3680"
       gradientUnits="userSpaceOnUse"
       gradientTransform="matrix(1.3045096,1.3724615,-1.3226853,1.2571988,40.76199,-62.316978)"
       cx="37.880722"
       cy="39.538532"
       fx="37.880722"
       fy="39.538532"
       r="15.652288" />
    <radialGradient
       inkscape:collect="always"
       xlink:href="#linearGradient3672"
       id="radialGradient3684"
       gradientUnits="userSpaceOnUse"
       gradientTransform="matrix(1.3045096,1.3724615,-1.3226853,1.2571988,40.76199,-62.316978)"
       cx="37.880722"
       cy="39.538532"
       fx="37.880722"
       fy="39.538532"
       r="15.652288" />
    <radialGradient
       inkscape:collect="always"
       xlink:href="#linearGradient3672"
       id="radialGradient3688"
       gradientUnits="userSpaceOnUse"
       gradientTransform="matrix(1.3045096,1.3724615,-1.3226853,1.2571988,40.76199,-62.316978)"
       cx="37.880722"
       cy="39.538532"
       fx="37.880722"
       fy="39.538532"
       r="15.652288" />
    <radialGradient
       inkscape:collect="always"
       xlink:href="#linearGradient3672"
       id="radialGradient3692"
       gradientUnits="userSpaceOnUse"
       gradientTransform="matrix(1.3045096,1.3724615,-1.3226853,1.2571988,40.76199,-62.316978)"
       cx="37.880722"
       cy="39.538532"
       fx="37.880722"
       fy="39.538532"
       r="15.652288" />
    <linearGradient
       inkscape:collect="always"
       xlink:href="#linearGradient3827"
       id="linearGradient3833"
       x1="-1.5152289"
       y1="-2.5406876"
       x2="401.53055"
       y2="-2.5356112"
       gradientUnits="userSpaceOnUse" />
  </defs>
  <sodipodi:namedview
     id="base"
     pagecolor="#ffffff"
     bordercolor="#666666"
     borderopacity="1.0"
     inkscape:pageopacity="0.0"
     inkscape:pageshadow="2"
     inkscape:zoom="1.979899"
     inkscape:cx="201.96826"
     inkscape:cy="154.63409"
     inkscape:document-units="px"
     inkscape:current-layer="layer1"
     showgrid="false"
     inkscape:window-width="1680"
     inkscape:window-height="986"
     inkscape:window-x="-4"
     inkscape:window-y="-3"
     inkscape:window-maximized="1" />
  <metadata
     id="metadata7">
    <rdf:RDF>
      <cc:Work
         rdf:about="">
        <dc:format>image/svg+xml</dc:format>
        <dc:type
           rdf:resource="http://purl.org/dc/dcmitype/StillImage" />
        <dc:title />
      </cc:Work>
    </rdf:RDF>
  </metadata>
  <g
     inkscape:label="Calque 1"
     inkscape:groupmode="layer"
     id="layer1"
     transform="translate(0,-752.36218)">
    <rect
       style="fill:url(#linearGradient3833);fill-opacity:1;stroke:none;stroke-opacity:1"
       id="rect3825"
       width="402.54578"
       height="305.06607"
       x="-1.5152289"
       y="-2.0356112"
       transform="translate(0,752.36218)" />
    <path
       sodipodi:type="arc"
       style="opacity:0.5;fill:url(#radialGradient3598);fill-opacity:1;stroke:#0000ff;stroke-opacity:1"
       id="path2818"
       sodipodi:cx="42.931484"
       sodipodi:cy="44.431404"
       sodipodi:rx="15.152288"
       sodipodi:ry="15.657365"
       d="m 58.083773,44.431404 c 0,8.647324 -6.783911,15.657365 -15.152289,15.657365 -8.368378,0 -15.152288,-7.010041 -15.152288,-15.657365 0,-8.647324 6.78391,-15.657365 15.152288,-15.657365 8.368378,0 15.152289,7.010041 15.152289,15.657365 z"
       transform="translate(282.15157,729.17871)" />
    <path
       transform="translate(239.66388,755.55472)"
       d="m 58.083773,44.431404 c 0,8.647324 -6.783911,15.657365 -15.152289,15.657365 -8.368378,0 -15.152288,-7.010041 -15.152288,-15.657365 0,-8.647324 6.78391,-15.657365 15.152288,-15.657365 8.368378,0 15.152289,7.010041 15.152289,15.657365 z"
       sodipodi:ry="15.657365"
       sodipodi:rx="15.152288"
       sodipodi:cy="44.431404"
       sodipodi:cx="42.931484"
       id="path3600"
       style="opacity:0.5;fill:url(#radialGradient3602);fill-opacity:1;stroke:#0000ff;stroke-opacity:1"
       sodipodi:type="arc" />
    <path
       sodipodi:type="arc"
       style="opacity:0.5;fill:url(#radialGradient3606);fill-opacity:1;stroke:#0000ff;stroke-opacity:1"
       id="path3604"
       sodipodi:cx="42.931484"
       sodipodi:cy="44.431404"
       sodipodi:rx="15.152288"
       sodipodi:ry="15.657365"
       d="m 58.083773,44.431404 c 0,8.647324 -6.783911,15.657365 -15.152289,15.657365 -8.368378,0 -15.152288,-7.010041 -15.152288,-15.657365 0,-8.647324 6.78391,-15.657365 15.152288,-15.657365 8.368378,0 15.152289,7.010041 15.152289,15.657365 z"
       transform="translate(239.66388,803.03189)" />
    <path
       transform="translate(283.64142,823.64284)"
       d="m 58.083773,44.431404 c 0,8.647324 -6.783911,15.657365 -15.152289,15.657365 -8.368378,0 -15.152288,-7.010041 -15.152288,-15.657365 0,-8.647324 6.78391,-15.657365 15.152288,-15.657365 8.368378,0 15.152289,7.010041 15.152289,15.657365 z"
       sodipodi:ry="15.657365"
       sodipodi:rx="15.152288"
       sodipodi:cy="44.431404"
       sodipodi:cx="42.931484"
       id="path3608"
       style="opacity:0.5;fill:url(#radialGradient3610);fill-opacity:1;stroke:#0000ff;stroke-opacity:1"
       sodipodi:type="arc" />
    <path
       sodipodi:type="arc"
       style="opacity:0.5;fill:url(#radialGradient3616);fill-opacity:1;stroke:#0000ff;stroke-opacity:1"
       id="path3612"
       sodipodi:cx="42.931484"
       sodipodi:cy="44.431404"
       sodipodi:rx="15.152288"
       sodipodi:ry="15.657365"
       d="m 58.083773,44.431404 c 0,8.647324 -6.783911,15.657365 -15.152289,15.657365 -8.368378,0 -15.152288,-7.010041 -15.152288,-15.657365 0,-8.647324 6.78391,-15.657365 15.152288,-15.657365 8.368378,0 15.152289,7.010041 15.152289,15.657365 z"
       transform="translate(326.537,754.54457)" />
    <path
       transform="translate(326.537,802.02174)"
       d="m 58.083773,44.431404 c 0,8.647324 -6.783911,15.657365 -15.152289,15.657365 -8.368378,0 -15.152288,-7.010041 -15.152288,-15.657365 0,-8.647324 6.78391,-15.657365 15.152288,-15.657365 8.368378,0 15.152289,7.010041 15.152289,15.657365 z"
       sodipodi:ry="15.657365"
       sodipodi:rx="15.152288"
       sodipodi:cy="44.431404"
       sodipodi:cx="42.931484"
       id="path3614"
       style="opacity:0.5;fill:url(#radialGradient3618);fill-opacity:1;stroke:#0000ff;stroke-opacity:1"
       sodipodi:type="arc" />
    <path
       transform="translate(32.720164,755.84878)"
       d="m 58.083773,44.431404 c 0,8.647324 -6.783911,15.657365 -15.152289,15.657365 -8.368378,0 -15.152288,-7.010041 -15.152288,-15.657365 0,-8.647324 6.78391,-15.657365 15.152288,-15.657365 8.368378,0 15.152289,7.010041 15.152289,15.657365 z"
       sodipodi:ry="15.657365"
       sodipodi:rx="15.152288"
       sodipodi:cy="44.431404"
       sodipodi:cx="42.931484"
       id="path3620"
       style="opacity:0.5;fill:url(#radialGradient3632);fill-opacity:1;stroke:#0000ff;stroke-opacity:1"
       sodipodi:type="arc" />
    <path
       sodipodi:type="arc"
       style="opacity:0.5;fill:url(#radialGradient3634);fill-opacity:1;stroke:#0000ff;stroke-opacity:1"
       id="path3622"
       sodipodi:cx="42.931484"
       sodipodi:cy="44.431404"
       sodipodi:rx="15.152288"
       sodipodi:ry="15.657365"
       d="m 58.083773,44.431404 c 0,8.647324 -6.783911,15.657365 -15.152289,15.657365 -8.368378,0 -15.152288,-7.010041 -15.152288,-15.657365 0,-8.647324 6.78391,-15.657365 15.152288,-15.657365 8.368378,0 15.152289,7.010041 15.152289,15.657365 z"
       transform="translate(18.873884,762.37888)" />
    <path
       transform="translate(19.231034,781.1026)"
       d="m 58.083773,44.431404 c 0,8.647324 -6.783911,15.657365 -15.152289,15.657365 -8.368378,0 -15.152288,-7.010041 -15.152288,-15.657365 0,-8.647324 6.78391,-15.657365 15.152288,-15.657365 8.368378,0 15.152289,7.010041 15.152289,15.657365 z"
       sodipodi:ry="15.657365"
       sodipodi:rx="15.152288"
       sodipodi:cy="44.431404"
       sodipodi:cx="42.931484"
       id="path3624"
       style="opacity:0.5;fill:url(#radialGradient3636);fill-opacity:1;stroke:#0000ff;stroke-opacity:1"
       sodipodi:type="arc" />
    <path
       sodipodi:type="arc"
       style="opacity:0.5;fill:url(#radialGradient3638);fill-opacity:1;stroke:#0000ff;stroke-opacity:1"
       id="path3626"
       sodipodi:cx="42.931484"
       sodipodi:cy="44.431404"
       sodipodi:rx="15.152288"
       sodipodi:ry="15.657365"
       d="m 58.083773,44.431404 c 0,8.647324 -6.783911,15.657365 -15.152289,15.657365 -8.368378,0 -15.152288,-7.010041 -15.152288,-15.657365 0,-8.647324 6.78391,-15.657365 15.152288,-15.657365 8.368378,0 15.152289,7.010041 15.152289,15.657365 z"
       transform="translate(32.720164,788.46953)" />
    <path
       transform="translate(43.709284,762.13378)"
       d="m 58.083773,44.431404 c 0,8.647324 -6.783911,15.657365 -15.152289,15.657365 -8.368378,0 -15.152288,-7.010041 -15.152288,-15.657365 0,-8.647324 6.78391,-15.657365 15.152288,-15.657365 8.368378,0 15.152289,7.010041 15.152289,15.657365 z"
       sodipodi:ry="15.657365"
       sodipodi:rx="15.152288"
       sodipodi:cy="44.431404"
       sodipodi:cx="42.931484"
       id="path3628"
       style="opacity:0.5;fill:url(#radialGradient3640);fill-opacity:1;stroke:#0000ff;stroke-opacity:1"
       sodipodi:type="arc" />
    <path
       sodipodi:type="arc"
       style="opacity:0.5;fill:url(#radialGradient3642);fill-opacity:1;stroke:#0000ff;stroke-opacity:1"
       id="path3630"
       sodipodi:cx="42.931484"
       sodipodi:cy="44.431404"
       sodipodi:rx="15.152288"
       sodipodi:ry="15.657365"
       d="m 58.083773,44.431404 c 0,8.647324 -6.783911,15.657365 -15.152289,15.657365 -8.368378,0 -15.152288,-7.010041 -15.152288,-15.657365 0,-8.647324 6.78391,-15.657365 15.152288,-15.657365 8.368378,0 15.152289,7.010041 15.152289,15.657365 z"
       transform="translate(44.301024,782.64321)" />
    <path
       sodipodi:nodetypes="ccccccccccs"
       id="path3646"
       d="m 276.60715,816.03218 5.89243,-5.67 6.072,5.67 -3.929,0 0,16.473 3.929,0 -6.072,4.643 -5.84778,-4.643 3.43778,0 0,-16.473 -3.48243,0 z"
       style="fill:#000000;fill-opacity:1;stroke:#000000;stroke-width:1px;stroke-linecap:butt;stroke-linejoin:miter;stroke-opacity:1" />
    <path
       sodipodi:nodetypes="ccccccccccs"
       id="path3648"
       d="m 363.75,815.31789 5.89243,-5.67 6.072,5.67 -3.929,0 0,16.473 3.929,0 -6.072,4.643 -5.84778,-4.643 3.43778,0 0,-16.473 -3.48243,0 z"
       style="fill:#000000;fill-opacity:1;stroke:#000000;stroke-width:1px;stroke-linecap:butt;stroke-linejoin:miter;stroke-opacity:1" />
    <path
       sodipodi:nodetypes="ccccccccccs"
       id="path3650"
       d="m 337.56474,786.63739 -1.96414,-7.938 7.94637,-2.4235 -1.96451,3.40261 14.26603,8.2365 1.96451,-3.40262 0.98495,7.58001 -6.94485,2.74283 1.7189,-2.97721 -14.26604,-8.23649 -1.74122,3.01587 z"
       style="fill:#000000;fill-opacity:1;stroke:#000000;stroke-width:1px;stroke-linecap:butt;stroke-linejoin:miter;stroke-opacity:1" />
    <path
       style="fill:#000000;fill-opacity:1;stroke:#000000;stroke-width:1px;stroke-linecap:butt;stroke-linejoin:miter;stroke-opacity:1"
       d="m 293.99331,858.78025 -1.96414,-7.938 7.94637,-2.4235 -1.96451,3.40261 14.26603,8.2365 1.96451,-3.40262 0.98495,7.58001 -6.94485,2.74283 1.7189,-2.97721 -14.26604,-8.23649 -1.74122,3.01587 z"
       id="path3652"
       sodipodi:nodetypes="ccccccccccs" />
    <path
       sodipodi:nodetypes="ccccccccccs"
       id="path3654"
       d="m 357.90524,858.06596 1.96414,-7.938 -7.94637,-2.4235 1.96451,3.40261 -14.26603,8.2365 -1.96451,-3.40262 -0.98495,7.58001 6.94485,2.74283 -1.7189,-2.97721 14.26604,-8.23649 1.74122,3.01587 z"
       style="fill:#000000;fill-opacity:1;stroke:#000000;stroke-width:1px;stroke-linecap:butt;stroke-linejoin:miter;stroke-opacity:1" />
    <path
       style="fill:#000000;fill-opacity:1;stroke:#000000;stroke-width:1px;stroke-linecap:butt;stroke-linejoin:miter;stroke-opacity:1"
       d="m 313.26238,787.70882 1.96414,-7.938 -7.94637,-2.4235 1.96451,3.40261 -14.26603,8.2365 -1.96451,-3.40262 -0.98495,7.58001 6.94485,2.74283 -1.7189,-2.97721 14.26604,-8.23649 1.74122,3.01587 z"
       id="path3656"
       sodipodi:nodetypes="ccccccccccs" />
    <rect
       style="opacity:1;fill:url(#linearGradient3666);fill-opacity:1;stroke:#808080;stroke-opacity:1"
       id="rect3658"
       width="258.57144"
       height="13.214286"
       x="68.928574"
       y="905.7193" />
    <path
       transform="translate(285.18202,867.56961)"
       d="m 58.083773,44.431404 c 0,8.647324 -6.783911,15.657365 -15.152289,15.657365 -8.368378,0 -15.152288,-7.010041 -15.152288,-15.657365 0,-8.647324 6.78391,-15.657365 15.152288,-15.657365 8.368378,0 15.152289,7.010041 15.152289,15.657365 z"
       sodipodi:ry="15.657365"
       sodipodi:rx="15.152288"
       sodipodi:cy="44.431404"
       sodipodi:cx="42.931484"
       id="path3668"
       style="fill:url(#radialGradient3670);fill-opacity:1;stroke:#000000;stroke-opacity:1"
       sodipodi:type="arc" />
    <path
       sodipodi:type="arc"
       style="fill:url(#radialGradient3680);fill-opacity:1;stroke:#000000;stroke-opacity:1"
       id="path3678"
       sodipodi:cx="42.931484"
       sodipodi:cy="44.431404"
       sodipodi:rx="15.152288"
       sodipodi:ry="15.657365"
       d="m 58.083773,44.431404 c 0,8.647324 -6.783911,15.657365 -15.152289,15.657365 -8.368378,0 -15.152288,-7.010041 -15.152288,-15.657365 0,-8.647324 6.78391,-15.657365 15.152288,-15.657365 8.368378,0 15.152289,7.010041 15.152289,15.657365 z"
       transform="translate(28.603273,868.07469)" />
    <path
       transform="matrix(0.62488219,0,0,0.62488219,168.64079,884.7417)"
       d="m 58.083773,44.431404 c 0,8.647324 -6.783911,15.657365 -15.152289,15.657365 -8.368378,0 -15.152288,-7.010041 -15.152288,-15.657365 0,-8.647324 6.78391,-15.657365 15.152288,-15.657365 8.368378,0 15.152289,7.010041 15.152289,15.657365 z"
       sodipodi:ry="15.657365"
       sodipodi:rx="15.152288"
       sodipodi:cy="44.431404"
       sodipodi:cx="42.931484"
       id="path3682"
       style="fill:url(#radialGradient3684);fill-opacity:1;stroke:#000000;stroke-opacity:1"
       sodipodi:type="arc" />
    <path
       sodipodi:type="arc"
       style="fill:url(#radialGradient3688);fill-opacity:1;stroke:#000000;stroke-opacity:1"
       id="path3686"
       sodipodi:cx="42.931484"
       sodipodi:cy="44.431404"
       sodipodi:rx="15.152288"
       sodipodi:ry="15.657365"
       d="m 58.083773,44.431404 c 0,8.647324 -6.783911,15.657365 -15.152289,15.657365 -8.368378,0 -15.152288,-7.010041 -15.152288,-15.657365 0,-8.647324 6.78391,-15.657365 15.152288,-15.657365 8.368378,0 15.152289,7.010041 15.152289,15.657365 z"
       transform="matrix(0.62488219,0,0,0.62488219,105.50626,884.23662)" />
    <path
       transform="matrix(0.62488219,0,0,0.62488219,230.76518,884.7417)"
       d="m 58.083773,44.431404 c 0,8.647324 -6.783911,15.657365 -15.152289,15.657365 -8.368378,0 -15.152288,-7.010041 -15.152288,-15.657365 0,-8.647324 6.78391,-15.657365 15.152288,-15.657365 8.368378,0 15.152289,7.010041 15.152289,15.657365 z"
       sodipodi:ry="15.657365"
       sodipodi:rx="15.152288"
       sodipodi:cy="44.431404"
       sodipodi:cx="42.931484"
       id="path3690"
       style="fill:url(#radialGradient3692);fill-opacity:1;stroke:#000000;stroke-opacity:1"
       sodipodi:type="arc" />
    <text
       xml:space="preserve"
       style="font-size:40px;font-style:normal;font-weight:normal;line-height:100%;fill:#000000;fill-opacity:1;stroke:none;font-family:Bitstream Vera Sans"
       x="51.51778"
       y="944.71082"
       id="text3702"
       sodipodi:linespacing="100%"><tspan
         sodipodi:role="line"
         id="tspan3706"
         style="font-size:10px;font-style:normal;font-variant:normal;font-weight:normal;font-stretch:normal;text-align:start;line-height:100%;writing-mode:lr-tb;text-anchor:start;font-family:Sans;-inkscape-font-specification:Sans"
         x="51.51778"
         y="944.71082">Content</tspan></text>
    <text
       sodipodi:linespacing="100%"
       id="text3708"
       y="944.71082"
       x="110.12693"
       style="font-size:10px;font-style:normal;font-variant:normal;font-weight:normal;font-stretch:normal;text-align:start;line-height:100%;writing-mode:lr-tb;text-anchor:start;fill:#000000;fill-opacity:1;stroke:none;font-family:Sans;-inkscape-font-specification:Sans"
       xml:space="preserve"><tspan
         sodipodi:role="line"
         id="tspan3724"
         x="110.12693"
         y="944.71082">Common</tspan></text>
    <text
       xml:space="preserve"
       style="font-size:10px;font-style:normal;font-variant:normal;font-weight:normal;font-stretch:normal;text-align:start;line-height:100%;writing-mode:lr-tb;text-anchor:start;fill:#000000;fill-opacity:1;stroke:none;font-family:Sans;-inkscape-font-specification:Sans"
       x="176.77669"
       y="944.79871"
       id="text3712"
       sodipodi:linespacing="100%"><tspan
         sodipodi:role="line"
         id="tspan3726"
         x="176.77669"
         y="944.79871">Control</tspan></text>
    <text
       sodipodi:linespacing="100%"
       id="text3716"
       y="943.74158"
       x="242.37569"
       style="font-size:10px;font-style:normal;font-variant:normal;font-weight:normal;font-stretch:normal;text-align:start;line-height:100%;writing-mode:lr-tb;text-anchor:start;fill:#000000;fill-opacity:1;stroke:none;font-family:Sans;-inkscape-font-specification:Sans"
       xml:space="preserve"><tspan
         sodipodi:role="line"
         id="tspan3728"
         x="242.37569"
         y="943.74158">Stamp</tspan></text>
    <text
       xml:space="preserve"
       style="font-size:10px;font-style:normal;font-variant:normal;font-weight:normal;font-stretch:normal;text-align:start;line-height:100%;writing-mode:lr-tb;text-anchor:start;fill:#000000;fill-opacity:1;stroke:none;font-family:Sans;-inkscape-font-specification:Sans"
       x="315.59143"
       y="944.6449"
       id="text3720"
       sodipodi:linespacing="100%"><tspan
         sodipodi:role="line"
         id="tspan3730"
         x="315.59143"
         y="944.6449">Data</tspan></text>
    <text
       sodipodi:linespacing="100%"
       id="text3753"
       y="977.03571"
       x="45.456867"
       style="font-size:20px;font-style:normal;font-variant:normal;font-weight:normal;font-stretch:normal;text-align:start;line-height:100%;writing-mode:lr-tb;text-anchor:start;fill:#000000;fill-opacity:1;stroke:none;font-family:Sans;-inkscape-font-specification:Sans"
       xml:space="preserve"><tspan
         sodipodi:role="line"
         id="tspan3757"
         x="45.456867"
         y="977.03571">Tight</tspan></text>
    <text
       xml:space="preserve"
       style="font-size:20px;font-style:normal;font-variant:normal;font-weight:normal;font-stretch:normal;text-align:start;line-height:100%;writing-mode:lr-tb;text-anchor:start;fill:#000000;fill-opacity:1;stroke:none;font-family:Sans;-inkscape-font-specification:Sans"
       x="299.57114"
       y="976.53064"
       id="text3759"
       sodipodi:linespacing="100%"><tspan
         sodipodi:role="line"
         id="tspan3763"
         x="299.57114"
         y="976.53064">Loose</tspan></text>
    <text
       xml:space="preserve"
       style="font-size:10px;font-style:normal;font-variant:normal;font-weight:normal;font-stretch:normal;text-align:start;line-height:125%;writing-mode:lr-tb;text-anchor:start;fill:#000000;fill-opacity:1;stroke:none;font-family:Sans;-inkscape-font-specification:Sans"
       x="16.635788"
       y="235.20344"
       id="text3839"><tspan
         sodipodi:role="line"
         id="tspan3841">More interdependency
More coordination
More information flow</tspan></text>
    <text
       xml:space="preserve"
       style="font-size:14px;font-style:normal;font-variant:normal;font-weight:normal;font-stretch:normal;text-align:start;line-height:100%;writing-mode:lr-tb;text-anchor:start;fill:#000000;fill-opacity:1;stroke:none;font-family:Sans;-inkscape-font-specification:Sans"
       x="-0.50507194"
       y="1008.8149"
       id="text3843"
       sodipodi:linespacing="100%"><tspan
         sodipodi:role="line"
         id="tspan3847"
         x="-0.50507194"
         y="1008.8149">More interdependency</tspan><tspan
         sodipodi:role="line"
         id="tspan3849"
         x="-0.50507194"
         y="1022.8149">More coordination</tspan><tspan
         sodipodi:role="line"
         id="tspan3851"
         x="-0.50507194"
         y="1036.8149">More information flow</tspan></text>
    <text
       xml:space="preserve"
       style="font-size:10px;font-style:normal;font-variant:normal;font-weight:normal;font-stretch:normal;text-align:start;line-height:125%;writing-mode:lr-tb;text-anchor:start;fill:#000000;fill-opacity:1;stroke:none;font-family:Sans;-inkscape-font-specification:Sans"
       x="276.74541"
       y="234.1714"
       id="text3853"><tspan
         sodipodi:role="line"
         id="tspan3855">Less interdependency
Less coordination
Less information flow</tspan></text>
    <text
       sodipodi:linespacing="100%"
       id="text3857"
       y="1008.3504"
       x="244.01274"
       style="font-size:14px;font-style:normal;font-variant:normal;font-weight:normal;font-stretch:normal;text-align:start;line-height:100%;writing-mode:lr-tb;text-anchor:start;fill:#000000;fill-opacity:1;stroke:none;font-family:Sans;-inkscape-font-specification:Sans"
       xml:space="preserve"><tspan
         sodipodi:role="line"
         id="tspan3861"
         x="244.01274"
         y="1008.3504">Less interdependency</tspan><tspan
         sodipodi:role="line"
         id="tspan3863"
         x="244.01274"
         y="1022.3504">Less coordination</tspan><tspan
         sodipodi:role="line"
         id="tspan3865"
         x="244.01274"
         y="1036.3505">Less information flow</tspan></text>
  </g>
</svg>
